<?xml version="1.0" encoding="UTF-8" standalone="no"?>
<svg
   xmlns:dc="http://purl.org/dc/elements/1.1/"
   xmlns:cc="http://creativecommons.org/ns#"
   xmlns:rdf="http://www.w3.org/1999/02/22-rdf-syntax-ns#"
   xmlns:svg="http://www.w3.org/2000/svg"
   xmlns="http://www.w3.org/2000/svg"
   xmlns:sodipodi="http://sodipodi.sourceforge.net/DTD/sodipodi-0.dtd"
   xmlns:inkscape="http://www.inkscape.org/namespaces/inkscape"
   height="16"
   viewBox="0 0 16 16"
   width="16"
   version="1.1"
   id="svg4"
   sodipodi:docname="error_icon.svg"
   inkscape:version="1.0.2 (e86c870879, 2021-01-15)"
   inkscape:export-filename="error_icon.png"
   inkscape:export-xdpi="96"
   inkscape:export-ydpi="96">
  <metadata
     id="metadata10">
    <rdf:RDF>
      <cc:Work
         rdf:about="">
        <dc:format>image/svg+xml</dc:format>
        <dc:type
           rdf:resource="http://purl.org/dc/dcmitype/StillImage" />
        <dc:title></dc:title>
      </cc:Work>
    </rdf:RDF>
  </metadata>
  <defs
     id="defs8" />
  <sodipodi:namedview
     pagecolor="#ffffff"
     bordercolor="#666666"
     borderopacity="1"
     objecttolerance="10"
     gridtolerance="10"
     guidetolerance="10"
     inkscape:pageopacity="0"
     inkscape:pageshadow="2"
     inkscape:window-width="2560"
     inkscape:window-height="1409"
     id="namedview6"
     showgrid="false"
     inkscape:zoom="44.6875"
     inkscape:cx="8"
     inkscape:cy="8"
     inkscape:window-x="2560"
     inkscape:window-y="0"
     inkscape:window-maximized="1"
     inkscape:current-layer="svg4" />
  <path
     d="m2 1v8.5859l1.293-1.293a1.0001 1.0001 0 0 1 .69141-.29102 1.0001 1.0001 0 0 1 .72266.29102l2.293 2.293 2.293-2.293a1.0001 1.0001 0 0 1 1.4141 0l2.293 2.293 1-1v-3.5859h-5v-5h-7zm8 0v4h4zm-6 9.4141-2 2v2.5859h12v-2.5859l-.29297.29297a1.0001 1.0001 0 0 1 -1.4141 0l-2.293-2.293-2.293 2.293a1.0001 1.0001 0 0 1 -1.4141 0l-2.293-2.293z"
     fill="#ff5d5d"
     transform="translate(0 -.000017)"
     id="path2" />
</svg>
